#!OML:ASF H:\Terrain\Patient Classification 1\Terrain2\Thursday\justin.ASF
:FULLY-SPECIFIED
:DEGREES
3663
root -2.29436 17.8927 10.9579 317.425 75.9367 -396.073
lowerback 15.7711 2.26762 12.0409
upperback 5.92306 5.28116 3.70524
thorax -1.73877 2.89482 -3.6801
lowerneck -11.4399 -2.5614 -8.43327
upperneck 38.597 -0.297602 2.03029
head 15.6004 -0.471253 2.49941
rclavicle -3.75703e-014 -1.51076e-014
rhumerus -22.0076 -9.68411 -75.2658
rradius 28.5038
rwrist -10.8022
rhand -24.6995 14.2884
rfingers 7.12502
rthumb 1.8018 -15.6838
lclavicle -3.75703e-014 -1.51076e-014
lhumerus -35.9528 10.9152 84.1842
lradius 26.5283
lwrist -0.911706
lhand -14.5681 20.6604
lfingers 7.12502
lthumb 11.5813 50.3204
rfemur 18.5978 -6.70924 30.5225
rtibia 5.24792e-014
rfoot -6.5031 3.2569
rtoes 13.585
lfemur -78.9176 25.4793 -12.7198
ltibia 131.21
lfoot -15.0291 -18.9428
ltoes -5.54322
3664
root -2.25051 17.8957 10.9675 317.613 76.0812 -395.761
lowerback 15.6801 2.13866 11.8438
upperback 6.00155 5.06329 3.6928
thorax -1.65591 2.79362 -3.54614
lowerneck -11.371 -2.42465 -8.71009
upperneck 38.513 -0.0615506 2.11229
head 15.5283 -0.401525 2.61785
rclavicle -2.34566e-014 -1.51076e-014
rhumerus -21.9988 -8.87002 -75.767
rradius 28.473
rwrist -10.9925
rhand -24.8058 14.0325
rfingers 7.12502
rthumb 1.69908 -15.9404
lclavicle -2.34566e-014 -1.51076e-014
lhumerus -35.9602 11.6394 83.9153
lradius 26.3621
lwrist -1.00199
lhand -14.0939 20.7021
lfingers 7.12502
lthumb 12.0386 50.3358
rfemur 18.8904 -6.6513 30.3737
rtibia 0
rfoot -6.56184 3.06195
rtoes 13.6438
lfemur -79.7912 25.3114 -13.2739
ltibia 131.123
lfoot -15.345 -18.7681
ltoes -8.45223
3665
root -2.22535 17.9019 10.9772 316.589 75.8975 -396.784
lowerback 15.7962 2.01568 12.0945
upperback 5.98804 4.96776 3.78082
thorax -1.73038 2.74598 -3.58436
lowerneck -11.3892 -2.34293 -8.83003
upperneck 38.5291 0.104448 2.09781
head 15.5311 -0.351918 2.65972
rclavicle -9.54166e-015 -1.98785e-014
rhumerus -21.9466 -8.69953 -76.0593
rradius 28.4565
rwrist -10.9549
rhand -24.0068 13.9989
rfingers 7.12502
rthumb 2.47075 -15.9665
lclavicle -9.54166e-015 -1.98785e-014
lhumerus -35.9103 12.3872 83.6671
lradius 26.1485
lwrist -1.56121
lhand -14.0304 20.4439
lfingers 7.12502
lthumb 12.0998 50.074
rfemur 18.9752 -6.57682 30.7693
rtibia 1.59028e-015
rfoot -6.60333 3.01017
rtoes 12.2173
lfemur -80.9472 25.5075 -13.2734
ltibia 130.834
lfoot -15.058 -19.3105
ltoes -7.85288
3666
root -2.2086 17.9034 10.9906 314.926 75.5633 -398.56
lowerback 15.9879 1.96948 12.5874
upperback 5.89401 5.03209 3.9121
thorax -1.88927 2.77106 -3.73884
lowerneck -11.4358 -2.32545 -8.88786
upperneck 38.5835 0.136331 2.16149
head 15.5676 -0.33844 2.70508
rclavicle -2.78299e-014 -8.74653e-015
rhumerus -21.9969 -8.82431 -76.3353
rradius 28.4764
rwrist -10.7908
rhand -23.4838 14.3212
rfingers 7.12502
rthumb 2.97584 -15.6378
lclavicle -2.78299e-014 -8.74653e-015
lhumerus -35.745 12.4437 83.6042
lradius 25.9198
lwrist -1.95364
lhand -13.9769 20.395
lfingers 7.12502
lthumb 12.1513 50.0221
rfemur 18.9081 -6.53571 31.487
rtibia 4.77083e-015
rfoot -6.51422 2.86574
rtoes 10.5857
lfemur -82.2313 25.7606 -13.0809
ltibia 130.426
lfoot -15.0991 -19.591
ltoes -7.19641
3667
root -2.17442 17.8991 11.0056 314.553 75.6567 -398.846
lowerback 16.1178 1.99499 12.5192
upperback 5.8779 5.07899 3.91527
thorax -1.97626 2.78799 -3.71541
lowerneck -11.3598 -2.31481 -8.78931
upperneck 38.506 0.117469 2.14749
head 15.5094 -0.331199 2.67553
rclavicle 2.68359e-014 4.13472e-014
rhumerus -22.1582 -9.14326 -76.6233
rradius 28.4568
rwrist -10.6101
rhand -23.3778 14.2979
rfingers 7.12502
rthumb 3.07823 -15.6596
lclavicle 2.68359e-014 4.13472e-014
lhumerus -35.542 12.5287 83.456
lradius 25.5944
lwrist -2.40803
lhand -13.7423 20.2668
lfingers 7.12502
lthumb 12.3776 49.8804
rfemur 19.1212 -6.55116 31.5382
rtibia -1.74931e-014
rfoot -6.50967 2.60254
rtoes 9.94194
lfemur -82.8384 25.3369 -13.3666
ltibia 129.882
lfoot -15.7257 -19.2707
ltoes -8.55937
3668
root -2.12197 17.8938 11.0111 315.122 76.083 -398.009
lowerback 16.1365 2.0229 12.1782
upperback 5.96374 5.04841 3.74319
thorax -1.91472 2.77743 -3.70581
lowerneck -11.2798 -2.32382 -8.37483
upperneck 38.4037 0.039145 1.96327
head 15.4384 -0.326715 2.50635
rclavicle -2.38542e-014 2.46493e-014
rhumerus -22.3855 -9.31636 -76.9718
rradius 28.5174
rwrist -10.8279
rhand -23.3822 14.0957
rfingers 7.12502
rthumb 3.07396 -15.8619
lclavicle -2.38542e-014 2.46493e-014
lhumerus -35.456 12.3936 83.3143
lradius 25.5405
lwrist -2.4863
lhand -13.9592 20.3179
lfingers 7.12502
lthumb 12.1684 49.944
rfemur 19.5733 -6.59901 31.014
rtibia 3.18055e-015
rfoot -6.6154 2.42608
rtoes 9.72687
lfemur -82.8603 24.3637 -13.9642
ltibia 129.226
lfoot -15.8858 -18.983
ltoes -8.52524
3669
root -2.07938 17.8897 11.0166 315.098 76.2493 -397.807
lowerback 16.2769 2.03826 12.0931
upperback 6.02842 5.07218 3.68568
thorax -1.91903 2.7926 -3.73069
lowerneck -11.3371 -2.3446 -8.39844
upperneck 38.4553 -0.0212748 2.08966
head 15.4809 -0.338765 2.5577
rclavicle 7.45443e-014 1.43125e-014
rhumerus -22.5999 -8.93957 -77.2996
rradius 28.7006
rwrist -11.3468
rhand -23.2331 14.1239
rfingers 7.12502
rthumb 3.21798 -15.8315
lclavicle 7.45443e-014 1.43125e-014
lhumerus -35.4608 11.8638 83.397
lradius 25.6849
lwrist -2.10125
lhand -14.17 20.3834
lfingers 7.12502
lthumb 11.9652 50.0214
rfemur 19.9438 -6.58112 30.826
rtibia -2.8625e-014
rfoot -6.5485 2.35892
rtoes 10.4975
lfemur -83.0426 23.7676 -14.2406
ltibia 128.507
lfoot -15.4533 -19.0495
ltoes -6.93861
3670
root -2.0451 17.8845 11.0302 314.259 76.139 -398.524
lowerback 16.4747 2.00681 12.2401
upperback 6.04574 5.09229 3.74281
thorax -1.99385 2.80253 -3.76588
lowerneck -11.4257 -2.36105 -8.64587
upperneck 38.5163 -0.0573796 2.33771
head 15.5372 -0.35828 2.70552
rclavicle -1.37161e-014 9.54166e-015
rhumerus -22.7277 -8.51399 -77.7208
rradius 28.7795
rwrist -11.5861
rhand -23.1841 14.2511
rfingers 7.12502
rthumb 3.26535 -15.7037
lclavicle -1.37161e-014 9.54166e-015
lhumerus -35.389 11.4227 83.4921
lradius 25.6202
lwrist -2.15287
lhand -14.1175 19.8269
lfingers 7.12502
lthumb 12.0158 49.4619
rfemur 20.1993 -6.53634 31.0915
rtibia 3.18055e-014
rfoot -6.4485 2.22695
rtoes 11.3257
lfemur -83.3943 23.4562 -14.1182
ltibia 127.655
lfoot -15.258 -19.134
ltoes -8.28181
3671
root -2.00567 17.8742 11.0399 313.247 76.0377 -399.566
lowerback 16.4447 1.93374 12.5016
upperback 6.04793 5.03425 3.73047
thorax -1.95698 2.78018 -3.90937
lowerneck -11.5324 -2.37402 -8.38452
upperneck 38.552 -0.102817 2.22967
head 15.5802 -0.356966 2.60671
rclavicle -3.85642e-014 -2.38542e-015
rhumerus -22.7389 -8.66242 -78.2848
rradius 28.6332
rwrist -11.3338
rhand -23.1587 14.4486
rfingers 7.12502
rthumb 3.28987 -15.5058
lclavicle -3.85642e-014 -2.38542e-015
lhumerus -35.1633 11.1139 83.4695
lradius 25.3631
lwrist -2.68335
lhand -14.5568 19.5252
lfingers 7.12502
lthumb 11.5922 49.1846
rfemur 20.3196 -6.53211 31.4287
rtibia 2.8625e-014
rfoot -6.48203 2.02
rtoes 11.069
lfemur -83.8505 23.0016 -13.9994
ltibia 126.726
lfoot -15.4261 -19.0921
ltoes -11.514
